<svg height="512" viewBox="0 0 58 58" width="512" xmlns="http://www.w3.org/2000/svg"><g id="Page-1" fill="none" fill-rule="evenodd"><g id="001---Skull-And-Crossbones" fill="rgb(0,0,0)" fill-rule="nonzero"><path id="Shape" d="m23 24c-3 0-3 1.51-3 2 0 1.6568542 1.3431458 3 3 3s3-1.3431458 3-3c0-.49 0-2-3-2z"/><path id="Shape" d="m35 24c-3 0-3 1.51-3 2 0 1.6568542 1.3431458 3 3 3s3-1.3431458 3-3c0-.49 0-2-3-2z"/><path id="Shape" d="m44 24c-.0034888-7.8935484-6.1240115-14.43376416-14-14.96v3.55l1.13 1.12c.6675676.6797757.7716131 1.7327163.25 2.53l-1.55 2.31c-.1839835.2793852-.4954809.4482694-.83.45-.1958889-.0024563-.3868904-.0614932-.55-.17-.2220203-.1467316-.3763952-.3759089-.4289477-.6367947s.0010525-.5319584.1489477-.7532053l1.54-2.31-1.12-1.13c-.3771767-.372279-.5896456-.8800436-.59-1.41v-3.55c-5.3623826.35489716-10.1244691 3.5532572-12.4814623 8.3829241-2.3569931 4.8296669-1.9481952 10.5515424 1.0714623 14.9970759-.8379619 1.7453621-.7803357 3.7881745.1546862 5.483522s2.6320428 2.8339973 4.5553138 3.056478l.52 5.24c.1027131 1.0219821.9628693 1.8000129 1.99 1.8h1.19v-5c0-.5522847.4477153-1 1-1s1 .4477153 1 1v5h4v-5c0-.5522847.4477153-1 1-1s1 .4477153 1 1v5h1.19c1.0271307.0000129 1.8872869-.7780179 1.99-1.8l.52-5.24c1.923271-.2224807 3.6202919-1.3611305 4.5553138-3.056478s.9926481-3.7381599.1546862-5.483522c1.6897084-2.482692 2.5922603-5.4168568 2.59-8.42zm-26.18-4.36c1.1483819-2.8921543 3.3594276-5.2355766 6.18-6.55.3251117-.1500516.7055788-.1152599.9980831.0912693s.4526074.5534193.42.91c-.0326074.3565808-.2529714.6686792-.5780831.8187307-2.3550229 1.0880629-4.2022038 3.0390582-5.16 5.45-.1460718.386502-.5168195.6416403-.93.64-.1234767.001009-.2458982-.0227952-.36-.07-.247384-.0945446-.4467517-.2839922-.5537883-.5262331-.1070367-.2422409-.112873-.5172023-.0162117-.7637669zm5.18 11.36c-2.7614237 0-5-2.2385763-5-5 0-2.5 1.87-4 5-4s5 1.5 5 4c0 2.7614237-2.2385763 5-5 5zm8.85 5.8c-.1717804.132314-.3831873.2027829-.6.2-.3142786-.0020134-.6098221-.1497852-.8-.4l-1.45-1.93-1.45 1.93c-.3313708.4418278-.9581722.5313708-1.4.2s-.5313708-.9581722-.2-1.4l2.25-3c.1977817-.2375422.4908982-.3749062.8-.3749062s.6022183.137364.8.3749062l2.25 3c.3313708.4418278.2418278 1.0686292-.2 1.4zm3.15-5.8c-2.7614237 0-5-2.2385763-5-5 0-2.5 1.87-4 5-4s5 1.5 5 4c0 1.3260824-.5267842 2.597852-1.4644661 3.5355339s-2.2094515 1.4644661-3.5355339 1.4644661z"/><path id="Shape" d="m11.55 7.31c-.3243274-.33779955-.3778761-.85269128-.13-1.25.5129837-.83346641.6982879-1.82769443.52-2.79-.3329027-1.72135193-1.7392852-3.03074254-3.48-3.24-2.08514022-.2456763-4.00408049 1.16620914-4.39 3.23-.07985696.40975693-.40024307.73014304-.81.81-2.06379086.38591951-3.4756763 2.30485978-3.23 4.39.20925746 1.7407148 1.51864807 3.1470973 3.24 3.48.96230557.1782879 1.95653359-.0070163 2.79-.52.39730872-.2478761.91220045-.1943274 1.25.13l5.98 5.98c.7839199-1.9068051 1.912802-3.6526738 3.33-5.15zm-3.35-1.09c-.49218154.80545511-1.16704726 1.48374654-1.97 1.98-.30546208.18756444-.68778512.19791905-1.00295173.02716335s-.51529549-.49667987-.52500001-.85500001.17248965-.69459891.47795174-.88216334c.53535361-.32535596.98464404-.77464639 1.31-1.31.29167295-.46882786.90391454-.61966999 1.38-.34.47091188.2908848.61837451.90754671.33 1.38z"/><path id="Shape" d="m11.55 50.69 7.92-7.92-.02-.19c-1.9215134-.6456447-3.5262839-1.9966542-4.49-3.78l-7.65 7.65c-.33779955.3243274-.85269128.3778761-1.25.13-.8332498-.5135681-1.82894937-.6955777-2.79-.51-1.88866316.3555562-3.25751872 2.0040204-3.25996381 3.9258588s1.36221149 3.5737804 3.24996381 3.9341412c.40975693.079857.73014304.4002431.81.81.36036082 1.8877523 2.01230279 3.2524089 3.93414118 3.2499638 1.92183838-.0024451 3.57030262-1.3713006 3.92585882-3.2599638.1855777-.9610506.0035681-1.9567502-.51-2.79-.2478761-.3973087-.1943274-.9122004.13-1.25zm-3.68 2.46c-.22652719.140135-.49960209.1841025-.75866684.1221522-.25906474-.0619502-.4827077-.2246981-.62133316-.4521522-.32535596-.5353536-.77464639-.984644-1.31-1.31-.46882786-.291673-.61966999-.9039145-.34-1.38.2908848-.4709119.90754671-.6183745 1.38-.33.80811552.4930887 1.48691133 1.1718845 1.98 1.98.13857176.2252641.18165829.4964642.11972449.7535833s-.22378097.4789556-.44972449.6164167z"/><path id="Shape" d="m57.97 49.54c-.2066308-1.7399678-1.5182649-3.1447117-3.24-3.47-.9610506-.1855777-1.9567502-.0035681-2.79.51-.3973087.2478761-.9122004.1943274-1.25-.13l-7.65-7.65c-.9637161 1.7833458-2.5684866 3.1343553-4.49 3.78l-.02.19 7.92 7.92c.3243274.3377996.3778761.8526913.13 1.25-.5135681.8332498-.6955777 1.8289494-.51 2.79.3555562 1.8886632 2.0040204 3.2575187 3.9258588 3.2599638s3.5737804-1.3622115 3.9341412-3.2499638c.079857-.4097569.4002431-.730143.81-.81 2.0657629-.3827758 3.4792644-2.3039125 3.23-4.39zm-5.15 1.97c-.5357884.3291042-.9849797.7817244-1.31 1.32-.2975402.461615-.9058172.6070725-1.38.33-.4709119-.2908848-.6183745-.9075467-.33-1.38.4959056-.8058949 1.1741051-1.4840944 1.98-1.98.3054621-.1857781.6868321-.1944821 1.0004517-.0228332s.5118425.497573.52.855-.1749896.6920551-.4804517.8778332z"/><path id="Shape" d="m54.74 4.07c-.4097569-.07985696-.730143-.40024307-.81-.81-.3603608-1.88775232-2.0123028-3.2524089-3.9341412-3.24996381s-3.5703026 1.37130065-3.9258588 3.25996381c-.1855777.96105063-.0035681 1.9567502.51 2.79.2478761.39730872.1943274.91220045-.13 1.25l-5.07 5.07c1.417198 1.4973262 2.5460801 3.2431949 3.33 5.15l5.98-5.98c.3377996-.3243274.8526913-.3778761 1.25-.13.8332498.5135681 1.8289494.6955777 2.79.51 1.8886632-.3555562 3.2575187-2.00402044 3.2599638-3.92585882.0024451-1.92183839-1.3622115-3.57378036-3.2499638-3.93414118zm-1.58 3.8c-.1386255.22745408-.3622684.39020197-.6213332.45215224-.2590647.06195026-.5321396.01798273-.7586668-.12215224-.8032749-.49495264-1.4809865-1.16924146-1.98-1.97-.1875644-.30546208-.197919-.68778512-.0271633-1.00295172.1707557-.31516661.4966798-.51529547.855-.525.3583201-.00970453.6945989.17248964.8821633.47795172.3315286.53653208.7834679.98847141 1.32 1.32.2263632.13708821.388567.35894062.4505395.61622042.0619725.25727979.0185757.52865641-.1205395.75377958z"/></g></g></svg>